<svg xmlns="http://www.w3.org/2000/svg" width="142" height="101" viewBox="0 0 142 101" fill="none"><g clip-path="url(#clip0_2203_56572)"><g clip-path="url(#clip1_2203_56572)"><path d="M138.456 80.9582C138.278 80.847 138.089 80.8804 137.889 80.9026C137.689 80.9248 137.489 80.9248 137.289 80.9359C136.423 80.947 135.589 80.8804 134.756 80.647C133.312 80.2693 132.123 79.3582 131.323 78.1137C130.856 77.3915 130.501 76.6026 130.201 75.8026C129.901 75.0026 129.634 74.1804 129.412 73.3582C129.356 73.147 129.301 72.9359 129.245 72.7359C129.234 72.647 129.212 72.5693 129.189 72.4804C129.167 72.4248 129.167 72.3248 129.134 72.2693C129.045 72.1582 128.789 72.1582 128.667 72.1582C128.489 72.147 128.301 72.147 128.112 72.1582C127.445 72.1693 126.789 72.1804 126.123 72.2248C125.856 72.2693 125.589 72.3582 125.323 72.4359C124.901 72.5582 124.478 72.6915 124.067 72.8582C123.856 72.9582 123.645 73.0693 123.456 73.2137C123.389 73.2693 123.312 73.3359 123.267 73.4137C123.223 73.5026 123.267 73.6137 123.278 73.7026C123.378 74.147 123.478 74.5693 123.612 75.0026C124.101 76.6137 124.878 78.147 125.945 79.4582C126.301 79.8804 126.689 80.2915 127.112 80.6582C116.534 88.2248 87.945 94.3026 48.5672 82.6804C46.9895 82.1137 45.4895 81.4804 44.0784 80.8137C47.3672 73.5359 46.545 66.9026 44.545 62.4582C41.745 56.247 38.9895 54.9026 31.7228 50.7693C25.9228 47.4582 22.8228 42.4693 23.845 35.4137C25.045 27.0693 29.445 25.0582 33.2228 25.3804C36.8006 25.6804 38.4228 30.847 35.5339 33.9137C35.4895 33.9693 35.4228 34.1582 35.4228 34.1915C35.445 34.8137 35.4561 34.9359 35.9117 35.3248C36.3561 35.7026 37.6228 35.8915 38.0117 35.6693C42.745 30.8026 39.4561 21.7915 32.9339 20.7248C24.0895 19.2693 16.5895 23.1359 14.7117 34.1026C13.0895 43.6026 23.1561 50.0693 29.2895 53.8915C36.7228 58.5248 36.7006 66.2248 35.7561 68.7582L34.945 71.1693C34.5561 72.2137 34.1117 73.2804 33.6117 74.3248C28.9673 72.2026 22.0784 64.3582 13.1228 65.6137C5.54503 66.6248 0.389478 71.947 0.0228112 78.6693C-0.877189 95.0915 30.6117 99.347 40.1006 87.2804C40.8561 86.3359 41.5228 85.3804 42.1228 84.4359C45.1117 85.9804 48.9561 87.8026 53.8895 89.8582C73.3117 97.9693 100.456 109.769 125.689 85.2693C126.612 84.3804 128.289 83.0582 129.345 82.1359C129.912 82.4026 130.478 82.6137 131.089 82.7582C131.912 82.9693 132.823 83.047 133.667 82.9804C134.523 82.9026 135.389 82.7804 136.212 82.5026C136.612 82.3804 137.012 82.2359 137.401 82.0804C137.589 82.0026 137.789 81.9248 137.978 81.8359C138.134 81.7693 138.334 81.7026 138.467 81.5915C138.545 81.5248 138.701 81.3137 138.667 81.2026C138.634 81.0804 138.567 81.0248 138.456 80.9582ZM22.045 85.7359C10.5561 88.4137 3.66726 83.447 4.30059 77.9026C4.78948 73.6915 8.20059 70.1137 13.845 69.2582C19.7228 68.3359 24.2006 70.7915 31.8784 77.547C29.445 81.5026 26.1784 84.7693 22.045 85.7359ZM43.8784 81.2359C43.8784 81.2359 43.8895 81.2359 43.8895 81.2248C43.9117 81.2359 43.9339 81.247 43.9561 81.2581C43.9339 81.247 43.9006 81.247 43.8784 81.2359Z" fill="#0773BA"></path><path d="M48.1312 22.1025H51.2757V23.4025C51.2757 26.2803 51.9312 27.8581 53.909 27.8581C55.4423 27.8581 56.2868 26.9803 56.2868 25.3692C56.2868 23.7581 55.8979 22.7136 54.409 20.8136L50.1757 15.7914C48.6868 13.8803 47.8201 11.9692 47.8201 9.76918C47.8201 6.21362 50.0757 3.71362 53.9757 3.71362C58.709 3.71362 60.0979 6.66918 60.0979 9.38029C60.0979 10.5247 59.8757 11.4136 59.6645 12.5692H56.5312V11.3025C56.5312 8.48029 55.7645 6.90251 53.9312 6.90251C52.409 6.90251 51.6645 7.82473 51.6645 9.23584C51.6645 10.7581 52.1534 11.547 52.9312 12.5803L57.6423 18.2803C59.3645 20.5136 60.309 22.4581 60.309 24.7581C60.309 28.547 57.8534 30.9247 53.9312 30.9247C49.0868 30.9247 47.709 28.1136 47.709 25.2581C47.709 24.1136 47.8534 23.2136 48.1201 22.1025H48.1312Z" fill="#E5178B"></path><path d="M63.5572 9.12467H67.5239V30.6802H63.5572V9.12467ZM63.2461 3.45801C63.2461 1.59134 64.135 0.958008 65.6239 0.958008C67.1128 0.958008 68.0239 1.72467 68.0239 3.45801C68.0239 5.09134 67.1572 6.03579 65.6128 6.03579C64.1572 6.03579 63.2461 5.12467 63.2461 3.45801Z" fill="#E5178B"></path><path d="M75.6776 2.21338H71.7109V30.68H75.6776V2.21338Z" fill="#E5178B"></path><path d="M78.0332 9.12476H81.9776L84.0665 20.5803L84.5888 25.1692H84.711L85.311 20.5803L87.3776 9.12476H91.1999L86.2776 30.6803H82.8888L78.0332 9.12476Z" fill="#E5178B"></path><path d="M100.911 17.9911C100.955 17.5356 100.977 16.3467 100.977 15.78C100.977 12.9356 100.3 11.78 98.9884 11.78C97.5884 11.78 96.9328 12.9689 96.9328 16.68V17.9911H100.911ZM92.9551 21.8578V17.7911C92.9551 9.55778 96.8884 8.89111 99.1773 8.89111C102.033 8.89111 104.611 10.4244 104.611 15.6244C104.611 17.3578 104.411 19.2911 104.1 20.6689H96.9328V22.8578C96.9328 26.6133 97.4328 27.88 99.2328 27.88C100.2 27.88 101.111 27.18 101.111 24.9022V24.2356H104.422V25.0689C104.422 29.1578 102.422 30.9356 98.7217 30.9356C95.0217 30.9356 92.9551 28.2911 92.9551 21.88V21.8578Z" fill="#E5178B"></path><path d="M107.955 9.1247H110.855L111.2 11.3136C112.066 9.68025 113.266 8.86914 114.455 8.86914C116.722 8.86914 117.788 10.2803 117.788 13.058C117.788 13.7803 117.555 15.1025 117.255 15.9803H114.5V13.9803C114.5 12.2469 114.033 11.758 113.455 11.758C112.833 11.758 112.277 12.2025 111.922 12.9136V30.658H107.955V9.1247Z" fill="#E5178B"></path><path d="M50.5339 41.3356H53.6006L53.9451 43.6356C55.1784 41.6801 56.8339 41.0801 58.4228 41.0801C60.1006 41.0801 61.3117 41.8912 61.9006 43.5245C63.1339 41.6579 64.7339 41.0801 66.3006 41.0801C68.7895 41.0801 70.2339 42.8579 70.2339 46.369V62.8801H66.2673V46.5134C66.2673 44.6245 65.7228 43.9801 64.4339 43.9801C63.7117 43.9801 62.9339 44.5579 62.3339 45.4801C62.3451 45.669 62.3451 45.8579 62.3451 46.0467V62.8912H58.3784V46.5245C58.3784 44.6356 57.8339 43.9912 56.5451 43.9912C55.8339 43.9912 55.0562 44.5579 54.4784 45.4579V62.8912H50.5117V41.3356H50.5339Z" fill="#0773BA"></path><path d="M74.4088 41.3359H78.3754V62.8914H74.4088V41.3359ZM74.0977 35.6692C74.0977 33.8025 74.9865 33.1692 76.4754 33.1692C77.9643 33.1692 78.8754 33.9359 78.8754 35.6692C78.8754 37.3025 78.0088 38.247 76.4643 38.247C75.0088 38.247 74.0977 37.3359 74.0977 35.6692Z" fill="#0773BA"></path><path d="M86.5448 34.4133H82.5781V62.88H86.5448V34.4133Z" fill="#0773BA"></path><path d="M98.0766 50.1916C98.1211 49.736 98.1433 48.5471 98.1433 47.9804C98.1433 45.136 97.4655 43.9804 96.1544 43.9804C94.7544 43.9804 94.0989 45.1693 94.0989 48.8804V50.1916H98.0766ZM90.1211 54.0582V49.9916C90.1211 41.7582 94.0544 41.0916 96.3433 41.0916C99.1989 41.0916 101.777 42.6249 101.777 47.8249C101.777 49.5582 101.577 51.4916 101.266 52.8693H94.0989V55.0582C94.0989 58.8138 94.5989 60.0804 96.3989 60.0804C97.3655 60.0804 98.2766 59.3804 98.2766 57.1027V56.436H101.588V57.2693C101.588 61.3582 99.5878 63.136 95.8878 63.136C92.1878 63.136 90.1211 60.4916 90.1211 54.0804V54.0582Z" fill="#0773BA"></path><path d="M104.666 55.9693H107.455C107.455 59.1027 108.032 60.0693 109.755 60.0693C110.943 60.0693 111.466 59.2916 111.466 58.4138C111.466 57.4916 110.966 56.7804 110.121 55.7582L107.221 52.3471C105.721 50.4471 104.321 48.5138 104.321 46.0027C104.321 42.6582 106.799 41.0916 109.621 41.0916C112.743 41.0916 114.743 42.5916 114.743 45.5693C114.743 46.5582 114.521 47.5582 114.355 48.2249H111.61C111.566 45.3916 111.277 43.9804 109.677 43.9804C108.299 43.9804 107.877 44.936 107.877 45.8471C107.877 46.8471 108.388 47.636 109.188 48.636L112.355 52.3471C113.266 53.4916 114.988 55.5693 114.988 58.0916C114.988 61.1249 113.01 63.136 109.488 63.136C106.588 63.136 104.266 61.9471 104.266 58.3916C104.266 57.4582 104.488 56.5027 104.655 55.9804L104.666 55.9693Z" fill="#0773BA"></path><path d="M52.648 76.969C52.7813 76.969 52.8924 76.9357 52.9813 76.869C53.0702 76.8023 53.148 76.6912 53.2036 76.5357C53.2591 76.3801 53.3036 76.1801 53.3258 75.9246C53.348 75.669 53.3591 75.3579 53.3591 74.9912V73.0357C53.3591 72.6579 53.348 72.3468 53.3258 72.0912C53.3036 71.8357 53.2591 71.6357 53.2036 71.4801C53.148 71.3246 53.0702 71.2134 52.9813 71.1468C52.8924 71.0801 52.7813 71.0468 52.648 71.0468C52.5147 71.0468 52.3924 71.0801 52.3036 71.1468C52.2147 71.2134 52.1258 71.3246 52.0702 71.4801C52.0147 71.6357 51.9591 71.8357 51.9369 72.0912C51.9036 72.3468 51.8924 72.6579 51.8924 73.0357V74.9912C51.8924 75.369 51.9036 75.6801 51.9369 75.9246C51.9591 76.1801 52.0036 76.3801 52.0702 76.5357C52.1369 76.6912 52.2147 76.8023 52.3036 76.869C52.3924 76.9357 52.5147 76.969 52.648 76.969ZM52.6369 78.0912C52.4702 78.0912 52.2924 78.0801 52.1258 78.0468C51.948 78.0245 51.7813 77.969 51.6147 77.8801C51.448 77.7912 51.2924 77.6801 51.148 77.5134C51.0036 77.3579 50.8813 77.1468 50.7702 76.8912C50.6591 76.6357 50.5813 76.3134 50.5147 75.9357C50.448 75.5579 50.4258 75.1134 50.4258 74.5912V73.3468C50.4258 72.8357 50.4591 72.3912 50.5258 72.0245C50.5924 71.6579 50.6702 71.3468 50.7813 71.1023C50.8924 70.8579 51.0258 70.6579 51.1702 70.5023C51.3147 70.3579 51.4702 70.2357 51.6369 70.1579C51.8036 70.0801 51.9702 70.0245 52.148 70.0023C52.3258 69.9801 52.4924 69.969 52.6591 69.969C52.8258 69.969 52.9813 69.9801 53.148 70.0023C53.3147 70.0245 53.4813 70.069 53.648 70.1468C53.8147 70.2245 53.9591 70.3357 54.1036 70.4801C54.248 70.6245 54.3702 70.8245 54.4813 71.0801C54.5924 71.3357 54.6813 71.6357 54.7369 72.0134C54.8036 72.3801 54.8369 72.8246 54.8369 73.3468V74.5912C54.8369 75.1023 54.8036 75.5468 54.7369 75.9246C54.6702 76.3023 54.5813 76.6134 54.4702 76.869C54.3591 77.1245 54.2258 77.3357 54.0813 77.4912C53.9369 77.6468 53.7813 77.7801 53.6147 77.869C53.448 77.9579 53.2924 78.0134 53.1258 78.0468C52.9591 78.0801 52.7924 78.0912 52.648 78.0912H52.6369Z" fill="#079146"></path><path d="M56.6986 70.0694H57.7653L57.8875 70.8805C58.0542 70.5805 58.2319 70.3582 58.4431 70.2027C58.6542 70.0582 58.8653 69.9805 59.0875 69.9805C59.5097 69.9805 59.8208 70.1138 60.0208 70.3694C60.2208 70.6249 60.3208 71.0138 60.3208 71.5249C60.3208 71.5916 60.3208 71.6694 60.3097 71.7582C60.3097 71.8471 60.2875 71.9471 60.2653 72.036C60.2431 72.136 60.2319 72.236 60.1986 72.3249C60.1764 72.4249 60.1431 72.5138 60.1208 72.5916H59.1097V71.8582C59.1097 71.6916 59.1097 71.5694 59.0764 71.4582C59.0542 71.3582 59.0319 71.2694 58.9875 71.2027C58.9542 71.136 58.9097 71.0916 58.8653 71.0694C58.8208 71.0471 58.7653 71.036 58.7208 71.036C58.6097 71.036 58.4986 71.0694 58.3986 71.1471C58.2986 71.2249 58.2208 71.3249 58.1542 71.4582V78.0027H56.6875V70.0582L56.6986 70.0694Z" fill="#079146"></path><path d="M61.3998 71.1026V70.0692H62.1442L62.4442 68.0137H63.4887V70.0692H64.7553V71.1026H63.4887V76.1581C63.4887 76.3359 63.4998 76.4692 63.5331 76.5803C63.5664 76.6914 63.6109 76.7692 63.6664 76.8248C63.722 76.8803 63.7887 76.9248 63.8664 76.947C63.9442 76.9692 64.022 76.9803 64.1109 76.9803C64.2553 76.9803 64.3776 76.9581 64.4887 76.9248C64.5998 76.8915 64.6998 76.847 64.7998 76.7803V77.5915C64.7109 77.6915 64.622 77.7803 64.522 77.847C64.422 77.9137 64.322 77.9692 64.222 78.0026C64.122 78.047 64.0109 78.0692 63.8998 78.0914C63.7887 78.1026 63.6887 78.1137 63.5776 78.1137C63.3776 78.1137 63.1776 78.0803 62.9887 78.0359C62.7998 77.9803 62.6331 77.8803 62.4887 77.7248C62.3442 77.5692 62.222 77.3581 62.1442 77.0914C62.0553 76.8248 62.0109 76.4692 62.0109 76.0359V71.1137H61.3887L61.3998 71.1026Z" fill="#079146"></path><path d="M66.3328 67.5249H67.7994V69.3916L67.7217 70.7582C67.8328 70.6138 67.9439 70.4805 68.0661 70.3805C68.1883 70.2805 68.3217 70.2027 68.455 70.1471C68.5883 70.0916 68.7217 70.0471 68.855 70.0249C68.9883 70.0027 69.1217 69.9916 69.2661 69.9916C69.7328 69.9916 70.0883 70.1582 70.3439 70.4805C70.5994 70.8027 70.7217 71.2916 70.7217 71.936V78.0249H69.255V71.9916C69.255 71.6471 69.1994 71.4027 69.0883 71.2582C68.9772 71.1249 68.8217 71.0582 68.6105 71.0582C68.4661 71.0582 68.3217 71.1027 68.1661 71.2027C68.0217 71.3027 67.8883 71.436 67.7772 71.6138V78.0249H66.3105V67.536L66.3328 67.5249Z" fill="#079146"></path><path d="M74.8433 76.969C74.9766 76.969 75.0878 76.9357 75.1767 76.869C75.2655 76.8023 75.3433 76.6912 75.3989 76.5357C75.4544 76.3801 75.4989 76.1801 75.5211 75.9246C75.5433 75.669 75.5544 75.3579 75.5544 74.9912V73.0357C75.5544 72.6579 75.5433 72.3468 75.5211 72.0912C75.4989 71.8357 75.4544 71.6357 75.3989 71.4801C75.3433 71.3246 75.2655 71.2134 75.1767 71.1468C75.0878 71.0801 74.9766 71.0468 74.8433 71.0468C74.6989 71.0468 74.5878 71.0801 74.4989 71.1468C74.41 71.2134 74.3211 71.3246 74.2655 71.4801C74.21 71.6357 74.1544 71.8357 74.1322 72.0912C74.0989 72.3468 74.0878 72.6579 74.0878 73.0357V74.9912C74.0878 75.369 74.0989 75.6801 74.1322 75.9246C74.1544 76.1801 74.1989 76.3801 74.2655 76.5357C74.3322 76.6912 74.41 76.8023 74.4989 76.869C74.5878 76.9357 74.71 76.969 74.8433 76.969ZM74.8322 78.0912C74.6655 78.0912 74.4878 78.0801 74.3211 78.0468C74.1433 78.0245 73.9766 77.969 73.81 77.8801C73.6433 77.7912 73.4878 77.6801 73.3433 77.5134C73.1989 77.3579 73.0766 77.1468 72.9655 76.8912C72.8544 76.6357 72.7767 76.3134 72.71 75.9357C72.6544 75.5579 72.6211 75.1134 72.6211 74.5912V73.3468C72.6211 72.8357 72.6544 72.3912 72.7211 72.0245C72.7878 71.6579 72.8766 71.3468 72.9766 71.1023C73.0878 70.8579 73.2211 70.6579 73.3655 70.5023C73.51 70.3579 73.6655 70.2357 73.8322 70.1579C73.9989 70.0801 74.1655 70.0245 74.3433 70.0023C74.5211 69.9801 74.6878 69.969 74.8544 69.969C75.0211 69.969 75.1766 69.9801 75.3433 70.0023C75.51 70.0245 75.6767 70.069 75.8433 70.1468C76.01 70.2245 76.1544 70.3357 76.2989 70.4801C76.4433 70.6245 76.5655 70.8245 76.6767 71.0801C76.7878 71.3357 76.8766 71.6357 76.9322 72.0134C76.9989 72.3801 77.0322 72.8246 77.0322 73.3468V74.5912C77.0322 75.1023 76.9989 75.5468 76.9322 75.9246C76.8655 76.3023 76.7766 76.6134 76.6655 76.869C76.5544 77.1245 76.4211 77.3357 76.2767 77.4912C76.1322 77.6468 75.9767 77.7801 75.81 77.869C75.6433 77.9579 75.4878 78.0134 75.3211 78.0468C75.1544 78.0801 74.9878 78.0912 74.8433 78.0912H74.8322Z" fill="#079146"></path><path d="M80.9221 76.969C81.0221 76.969 81.0998 76.9579 81.1776 76.9245C81.2554 76.8912 81.3221 76.8468 81.3776 76.8023C81.4332 76.7468 81.4887 76.6912 81.5332 76.6245C81.5776 76.5579 81.6109 76.4801 81.6443 76.4134V71.6357C81.5665 71.469 81.4776 71.3357 81.3554 71.2245C81.2332 71.1134 81.0887 71.0579 80.9109 71.0579C80.7998 71.0579 80.6998 71.0801 80.6109 71.1134C80.5221 71.1468 80.4443 71.2245 80.3776 71.3245C80.3109 71.4357 80.2554 71.5801 80.222 71.769C80.1887 71.9579 80.1665 72.2023 80.1665 72.4912V75.5357C80.1665 75.8357 80.1887 76.069 80.222 76.2579C80.2554 76.4468 80.3109 76.5912 80.3776 76.7023C80.4443 76.8134 80.5221 76.8801 80.6109 76.9245C80.6998 76.969 80.7998 76.9801 80.9109 76.9801L80.9221 76.969ZM80.422 78.1023C80.3332 78.1023 80.2332 78.1023 80.1109 78.0801C79.9887 78.0579 79.8665 78.0245 79.7443 77.9579C79.622 77.9023 79.4887 77.8023 79.3665 77.6801C79.2443 77.5579 79.1332 77.3912 79.0332 77.1801C78.9332 76.969 78.8554 76.7023 78.7998 76.3912C78.7443 76.0801 78.7109 75.6912 78.7109 75.2468V72.7245C78.7109 72.2801 78.7443 71.9023 78.8109 71.5912C78.8776 71.2801 78.9554 71.0245 79.0665 70.8245C79.1665 70.6245 79.2887 70.469 79.4109 70.3468C79.5443 70.2357 79.6665 70.1468 79.7998 70.0912C79.9332 70.0357 80.0554 70.0023 80.1665 69.9912C80.2887 69.9801 80.3776 69.969 80.4554 69.969C80.5998 69.969 80.7332 69.9912 80.8554 70.0245C80.9776 70.0579 81.0998 70.1134 81.1998 70.1801C81.2998 70.2468 81.3998 70.3134 81.4776 70.3912C81.5554 70.469 81.6221 70.5468 81.6776 70.6245L81.6332 69.6134V67.4912H83.0887V77.9801H81.9554L81.8332 77.2468C81.7665 77.3468 81.6887 77.4468 81.6109 77.5468C81.522 77.6468 81.4221 77.7357 81.3109 77.8134C81.1998 77.8912 81.0665 77.9579 80.9221 78.0023C80.7776 78.0468 80.6109 78.069 80.422 78.069V78.1023Z" fill="#079146"></path><path d="M87.2086 76.9692C87.3419 76.9692 87.453 76.9359 87.5419 76.8692C87.6308 76.8026 87.7086 76.6915 87.7641 76.5359C87.8197 76.3803 87.8641 76.1803 87.8863 75.9248C87.9086 75.6692 87.9197 75.3581 87.9197 74.9915V73.0359C87.9197 72.6581 87.9086 72.347 87.8863 72.0915C87.8641 71.8359 87.8197 71.6359 87.7641 71.4804C87.7086 71.3248 87.6308 71.2137 87.5419 71.147C87.453 71.0803 87.3419 71.047 87.2086 71.047C87.0752 71.047 86.953 71.0803 86.8641 71.147C86.7752 71.2137 86.6863 71.3248 86.6308 71.4804C86.5752 71.6359 86.5197 71.8359 86.4974 72.0915C86.4641 72.347 86.453 72.6581 86.453 73.0359V74.9915C86.453 75.3692 86.4641 75.6803 86.4974 75.9248C86.5197 76.1803 86.5641 76.3803 86.6308 76.5359C86.6974 76.6915 86.7752 76.8026 86.8641 76.8692C86.953 76.9359 87.0752 76.9692 87.2086 76.9692ZM87.1974 78.0915C87.0308 78.0915 86.853 78.0803 86.6863 78.047C86.5085 78.0248 86.3419 77.9692 86.1752 77.8804C86.0085 77.7915 85.853 77.6803 85.7086 77.5137C85.5641 77.3581 85.4419 77.147 85.3308 76.8915C85.2197 76.6359 85.1419 76.3137 85.0752 75.9359C85.0197 75.5581 84.9863 75.1137 84.9863 74.5915V73.347C84.9863 72.8359 85.0197 72.3915 85.0863 72.0248C85.153 71.6581 85.2419 71.347 85.3419 71.1026C85.453 70.8581 85.5752 70.6581 85.7308 70.5026C85.8752 70.3581 86.0308 70.2359 86.1974 70.1581C86.3641 70.0803 86.5308 70.0248 86.7086 70.0026C86.8863 69.9803 87.053 69.9692 87.2197 69.9692C87.3863 69.9692 87.5419 69.9803 87.7086 70.0026C87.8752 70.0248 88.0419 70.0692 88.2086 70.147C88.3752 70.2248 88.5197 70.3359 88.6641 70.4803C88.8086 70.6248 88.9308 70.8248 89.0419 71.0803C89.153 71.3359 89.2419 71.6359 89.2974 72.0137C89.3641 72.3803 89.3974 72.8248 89.3974 73.347V74.5915C89.3974 75.1026 89.3641 75.547 89.2974 75.9248C89.2308 76.3026 89.1419 76.6137 89.0308 76.8692C88.9197 77.1248 88.7863 77.3359 88.6419 77.4915C88.4974 77.647 88.3419 77.7803 88.1752 77.8692C88.0086 77.9581 87.853 78.0137 87.6863 78.047C87.5197 78.0803 87.3641 78.0915 87.2086 78.0915H87.1974Z" fill="#079146"></path><path d="M91.28 70.0694H92.4023L92.5356 70.9138C92.6467 70.736 92.78 70.5916 92.9134 70.4694C93.0467 70.3471 93.18 70.2471 93.3245 70.1805C93.4689 70.1027 93.6134 70.0582 93.7578 70.0249C93.9023 69.9916 94.0578 69.9805 94.2023 69.9805C94.6689 69.9805 95.0245 70.1471 95.28 70.4694C95.5356 70.7916 95.6578 71.2805 95.6578 71.936V78.0249H94.1911V71.9916C94.1911 71.636 94.1356 71.4027 94.0245 71.2582C93.9134 71.1249 93.7578 71.0582 93.5467 71.0582C93.4023 71.0582 93.2578 71.1027 93.1134 71.2027C92.9689 71.3027 92.8467 71.436 92.7245 71.6027V78.0249H91.2578V70.0805L91.28 70.0694Z" fill="#079146"></path><path d="M97.3119 71.1026V70.0692H98.0563L98.3563 68.0137H99.4008V70.0692H100.667V71.1026H99.4008V76.1581C99.4008 76.3359 99.4119 76.4692 99.4452 76.5803C99.4786 76.6914 99.523 76.7692 99.5786 76.8248C99.6341 76.8803 99.7008 76.9248 99.7786 76.947C99.8563 76.9692 99.9341 76.9803 100.023 76.9803C100.167 76.9803 100.29 76.9581 100.401 76.9248C100.512 76.8915 100.612 76.847 100.712 76.7803V77.5915C100.623 77.6915 100.534 77.7803 100.434 77.847C100.334 77.9137 100.234 77.9692 100.134 78.0026C100.034 78.047 99.923 78.0692 99.8119 78.0914C99.7008 78.1137 99.6008 78.1137 99.4897 78.1137C99.2897 78.1137 99.0897 78.0803 98.9008 78.0359C98.7119 77.9803 98.5452 77.8803 98.4008 77.7248C98.2563 77.5692 98.1341 77.3581 98.0563 77.0914C97.9674 76.8248 97.923 76.4692 97.923 76.0359V71.1137H97.3008L97.3119 71.1026Z" fill="#079146"></path><path d="M102.263 70.0691H103.73V78.0135H102.263V70.0691ZM103.019 68.9358C102.752 68.9358 102.541 68.858 102.386 68.6913C102.23 68.5246 102.152 68.2913 102.152 67.9802C102.152 67.8024 102.175 67.658 102.208 67.5469C102.252 67.4246 102.308 67.3358 102.386 67.2691C102.463 67.2024 102.552 67.1469 102.663 67.1135C102.775 67.0802 102.897 67.0691 103.03 67.0691C103.319 67.0691 103.541 67.1469 103.686 67.2913C103.841 67.4358 103.908 67.6691 103.908 67.9913C103.908 68.2913 103.83 68.5246 103.675 68.6913C103.519 68.858 103.297 68.9469 103.019 68.9469V68.9358Z" fill="#079146"></path><path d="M107.699 78.1023C107.033 78.1023 106.522 77.8245 106.166 77.2801C105.811 76.7245 105.633 75.8912 105.633 74.769V73.269C105.633 72.769 105.666 72.3357 105.744 71.9801C105.822 71.6245 105.911 71.3134 106.033 71.069C106.155 70.8245 106.288 70.6357 106.444 70.4912C106.599 70.3468 106.755 70.2357 106.922 70.169C107.088 70.0912 107.255 70.0468 107.411 70.0245C107.577 70.0023 107.722 69.9912 107.855 69.9912C108.122 69.9912 108.366 70.0245 108.599 70.1023C108.822 70.169 109.011 70.2801 109.177 70.4245C109.344 70.569 109.466 70.7468 109.555 70.969C109.644 71.1912 109.688 71.4468 109.688 71.7468C109.688 71.9357 109.688 72.0912 109.666 72.2245C109.644 72.3579 109.622 72.4912 109.599 72.6023H108.433V72.3357C108.433 71.9357 108.388 71.6245 108.288 71.4023C108.199 71.1801 108.044 71.069 107.822 71.069C107.699 71.069 107.599 71.1023 107.511 71.1579C107.422 71.2134 107.344 71.3134 107.288 71.4468C107.233 71.5801 107.188 71.7579 107.155 71.9912C107.122 72.2134 107.111 72.5023 107.111 72.8468V75.1023C107.111 75.4468 107.122 75.7468 107.144 75.9801C107.166 76.2245 107.211 76.4245 107.266 76.569C107.322 76.7245 107.399 76.8357 107.499 76.9023C107.599 76.969 107.711 77.0023 107.855 77.0023C107.933 77.0023 107.999 76.9801 108.066 76.9468C108.133 76.9134 108.199 76.8468 108.244 76.769C108.299 76.6801 108.333 76.569 108.366 76.4357C108.399 76.2912 108.411 76.1245 108.411 75.9134V75.669H109.666V75.969C109.666 76.7245 109.499 77.269 109.166 77.6134C108.833 77.9579 108.333 78.1245 107.677 78.1245L107.699 78.1023Z" fill="#079146"></path><path d="M111.154 76.3471C111.154 76.1694 111.165 76.0027 111.199 75.8471C111.232 75.6805 111.265 75.5583 111.299 75.4583H112.321C112.321 75.7471 112.332 75.9916 112.365 76.1805C112.399 76.3805 112.443 76.5249 112.51 76.6471C112.577 76.7583 112.665 76.8471 112.777 76.8916C112.888 76.9471 113.021 76.9694 113.177 76.9694C113.399 76.9694 113.554 76.9138 113.654 76.7805C113.754 76.6582 113.81 76.5138 113.81 76.3582C113.81 76.2694 113.799 76.1916 113.777 76.1138C113.754 76.036 113.721 75.9582 113.677 75.8805C113.632 75.8027 113.588 75.7249 113.521 75.6471C113.454 75.5694 113.388 75.4805 113.31 75.3805L112.243 74.1249C112.11 73.9471 111.977 73.7805 111.843 73.6027C111.71 73.4249 111.599 73.236 111.499 73.0471C111.399 72.8582 111.321 72.6582 111.265 72.4471C111.21 72.236 111.177 72.0249 111.177 71.7916C111.177 71.4805 111.232 71.2138 111.332 70.9916C111.443 70.7694 111.577 70.5805 111.754 70.4249C111.932 70.2805 112.143 70.1582 112.377 70.0916C112.61 70.0138 112.865 69.9805 113.121 69.9805C113.41 69.9805 113.665 70.0138 113.899 70.0805C114.132 70.1471 114.332 70.2582 114.499 70.3916C114.665 70.5249 114.788 70.7027 114.877 70.9027C114.965 71.1138 115.01 71.3471 115.01 71.6249C115.01 71.8138 114.999 71.9916 114.965 72.1582C114.932 72.336 114.899 72.4805 114.865 72.6027H113.854C113.854 72.336 113.843 72.1138 113.821 71.9138C113.799 71.7138 113.765 71.5582 113.71 71.4249C113.654 71.2916 113.588 71.2027 113.499 71.136C113.41 71.0694 113.288 71.036 113.143 71.036C113.021 71.036 112.91 71.0582 112.832 71.0916C112.743 71.136 112.677 71.1805 112.621 71.2471C112.565 71.3138 112.532 71.3805 112.51 71.4694C112.488 71.5471 112.477 71.636 112.477 71.7138C112.477 71.9027 112.521 72.0694 112.61 72.2249C112.699 72.3805 112.81 72.5582 112.965 72.736L114.132 74.1027C114.221 74.2027 114.321 74.336 114.432 74.4805C114.543 74.6249 114.654 74.7916 114.754 74.9694C114.854 75.1471 114.943 75.3471 115.01 75.5582C115.077 75.7694 115.121 75.9916 115.121 76.2249C115.121 76.5027 115.077 76.7582 114.988 76.9916C114.899 77.2249 114.765 77.4138 114.599 77.5805C114.432 77.7471 114.21 77.8694 113.965 77.9583C113.71 78.0471 113.421 78.0916 113.099 78.0916C112.832 78.0916 112.577 78.0582 112.343 78.0027C112.11 77.9471 111.899 77.8471 111.732 77.7138C111.554 77.5805 111.421 77.3916 111.321 77.1694C111.221 76.9471 111.165 76.6694 111.165 76.3471H111.154Z" fill="#079146"></path></g></g><defs><clipPath id="clip0_2203_56572"><rect width="141.111" height="100" fill="white" transform="translate(0 0.958008)"></rect></clipPath><clipPath id="clip1_2203_56572"><rect width="153.133" height="118.422" fill="white" transform="translate(0 0.958008)"></rect></clipPath></defs></svg>